<svg width="150" height="65" viewBox="0 0 150 65" fill="none" xmlns="http://www.w3.org/2000/svg">
<rect width="150" height="65" fill="white"/>
<path d="M17.8295 41H15.6136L22.0227 23.5455H24.2045L30.6136 41H28.3977L23.1818 26.3068H23.0455L17.8295 41ZM18.6477 34.1818H27.5795V36.0568H18.6477V34.1818ZM33.3324 41V23.5455H35.446V32.2045H35.6506L43.4915 23.5455H46.2528L38.9233 31.4205L46.2528 41H43.696L37.6278 32.8864L35.446 35.3409V41H33.3324ZM51.1023 23.5455V41H48.9886V23.5455H51.1023ZM69.1811 23.5455V41H67.1357L57.6243 27.2955H57.4538V41H55.3402V23.5455H57.3857L66.9311 37.2841H67.1016V23.5455H69.1811ZM72.456 25.4205V23.5455H85.5469V25.4205H80.0582V41H77.9446V25.4205H72.456ZM102.81 32.2727C102.81 34.1136 102.477 35.7045 101.812 37.0455C101.148 38.3864 100.236 39.4205 99.0767 40.1477C97.9176 40.875 96.5938 41.2386 95.1051 41.2386C93.6165 41.2386 92.2926 40.875 91.1335 40.1477C89.9744 39.4205 89.0625 38.3864 88.3977 37.0455C87.733 35.7045 87.4006 34.1136 87.4006 32.2727C87.4006 30.4318 87.733 28.8409 88.3977 27.5C89.0625 26.1591 89.9744 25.125 91.1335 24.3977C92.2926 23.6705 93.6165 23.3068 95.1051 23.3068C96.5938 23.3068 97.9176 23.6705 99.0767 24.3977C100.236 25.125 101.148 26.1591 101.812 27.5C102.477 28.8409 102.81 30.4318 102.81 32.2727ZM100.764 32.2727C100.764 30.7614 100.511 29.4858 100.006 28.446C99.5057 27.4062 98.8267 26.6193 97.9688 26.0852C97.1165 25.5511 96.1619 25.2841 95.1051 25.2841C94.0483 25.2841 93.0909 25.5511 92.233 26.0852C91.3807 26.6193 90.7017 27.4062 90.196 28.446C89.696 29.4858 89.446 30.7614 89.446 32.2727C89.446 33.7841 89.696 35.0597 90.196 36.0994C90.7017 37.1392 91.3807 37.9261 92.233 38.4602C93.0909 38.9943 94.0483 39.2614 95.1051 39.2614C96.1619 39.2614 97.1165 38.9943 97.9688 38.4602C98.8267 37.9261 99.5057 37.1392 100.006 36.0994C100.511 35.0597 100.764 33.7841 100.764 32.2727ZM106.364 41V23.5455H108.477V39.125H116.591V41H106.364ZM121.681 41H119.465L125.874 23.5455H128.056L134.465 41H132.249L127.033 26.3068H126.897L121.681 41ZM122.499 34.1818H131.431V36.0568H122.499V34.1818Z" fill="#975A16"/>
</svg>
