<svg width="150" height="65" viewBox="0 0 150 65" fill="none" xmlns="http://www.w3.org/2000/svg">
<rect width="150" height="65" fill="white"/>
<path d="M30.8295 41H28.6136L35.0227 23.5455H37.2045L43.6136 41H41.3977L36.1818 26.3068H36.0455L30.8295 41ZM31.6477 34.1818H40.5795V36.0568H31.6477V34.1818ZM46.3324 41V23.5455H48.446V39.125H56.5597V41H46.3324ZM71.2869 23.5455H73.4006V35.1023C73.4006 36.2955 73.1193 37.3608 72.5568 38.2983C72 39.2301 71.2131 39.9659 70.196 40.5057C69.179 41.0398 67.9858 41.3068 66.6165 41.3068C65.2472 41.3068 64.054 41.0398 63.0369 40.5057C62.0199 39.9659 61.2301 39.2301 60.6676 38.2983C60.1108 37.3608 59.8324 36.2955 59.8324 35.1023V23.5455H61.946V34.9318C61.946 35.7841 62.1335 36.5426 62.5085 37.2074C62.8835 37.8665 63.4176 38.3864 64.1108 38.767C64.8097 39.142 65.6449 39.3295 66.6165 39.3295C67.5881 39.3295 68.4233 39.142 69.1222 38.767C69.821 38.3864 70.3551 37.8665 70.7244 37.2074C71.0994 36.5426 71.2869 35.7841 71.2869 34.9318V23.5455ZM77.6214 23.5455H80.1442L86.076 38.0341H86.2805L92.2124 23.5455H94.7351V41H92.7578V27.7386H92.5874L87.1328 41H85.2237L79.7692 27.7386H79.5987V41H77.6214V23.5455ZM112.814 23.5455V41H110.768L101.257 27.2955H101.087V41H98.973V23.5455H101.018L110.564 37.2841H110.734V23.5455H112.814ZM119.157 23.5455V41H117.043V23.5455H119.157Z" fill="#2D3748"/>
</svg>
