<svg width="150" height="65" viewBox="0 0 150 65" fill="none" xmlns="http://www.w3.org/2000/svg">
<rect width="150" height="65" fill="white"/>
<path d="M26.8295 41H24.6136L31.0227 23.5455H33.2045L39.6136 41H37.3977L32.1818 26.3068H32.0455L26.8295 41ZM27.6477 34.1818H36.5795V36.0568H27.6477V34.1818ZM56.1733 23.5455V41H54.1278L44.6165 27.2955H44.446V41H42.3324V23.5455H44.3778L53.9233 37.2841H54.0938V23.5455H56.1733ZM72.3345 29C72.147 28.4261 71.8999 27.9119 71.593 27.4574C71.2919 26.9972 70.9311 26.6051 70.5107 26.2812C70.0959 25.9574 69.6243 25.7102 69.0959 25.5398C68.5675 25.3693 67.9879 25.2841 67.3572 25.2841C66.3232 25.2841 65.3828 25.5511 64.5362 26.0852C63.6896 26.6193 63.0163 27.4062 62.5163 28.446C62.0163 29.4858 61.7663 30.7614 61.7663 32.2727C61.7663 33.7841 62.0192 35.0597 62.5249 36.0994C63.0305 37.1392 63.7152 37.9261 64.5788 38.4602C65.4425 38.9943 66.4141 39.2614 67.4936 39.2614C68.4936 39.2614 69.3743 39.0483 70.1357 38.6222C70.9027 38.1903 71.4993 37.5824 71.9254 36.7983C72.3572 36.0085 72.5732 35.0795 72.5732 34.0114L73.2209 34.1477H67.9709V32.2727H74.6186V34.1477C74.6186 35.5852 74.3118 36.8352 73.6982 37.8977C73.0902 38.9602 72.2493 39.7841 71.1754 40.3693C70.1072 40.9489 68.88 41.2386 67.4936 41.2386C65.9482 41.2386 64.5902 40.875 63.4197 40.1477C62.255 39.4205 61.3459 38.3864 60.6925 37.0455C60.0447 35.7045 59.7209 34.1136 59.7209 32.2727C59.7209 30.892 59.9055 29.6506 60.2749 28.5483C60.6499 27.4403 61.1783 26.4972 61.8601 25.7188C62.5419 24.9403 63.3487 24.3438 64.2805 23.929C65.2124 23.5142 66.2379 23.3068 67.3572 23.3068C68.2777 23.3068 69.1357 23.446 69.9311 23.7244C70.7322 23.9972 71.4453 24.3864 72.0703 24.892C72.701 25.392 73.2266 25.9915 73.647 26.6903C74.0675 27.3835 74.3572 28.1534 74.5163 29H72.3345ZM92.9659 32.2727C92.9659 34.1136 92.6335 35.7045 91.9688 37.0455C91.304 38.3864 90.392 39.4205 89.233 40.1477C88.0739 40.875 86.75 41.2386 85.2614 41.2386C83.7727 41.2386 82.4489 40.875 81.2898 40.1477C80.1307 39.4205 79.2188 38.3864 78.554 37.0455C77.8892 35.7045 77.5568 34.1136 77.5568 32.2727C77.5568 30.4318 77.8892 28.8409 78.554 27.5C79.2188 26.1591 80.1307 25.125 81.2898 24.3977C82.4489 23.6705 83.7727 23.3068 85.2614 23.3068C86.75 23.3068 88.0739 23.6705 89.233 24.3977C90.392 25.125 91.304 26.1591 91.9688 27.5C92.6335 28.8409 92.9659 30.4318 92.9659 32.2727ZM90.9205 32.2727C90.9205 30.7614 90.6676 29.4858 90.1619 28.446C89.6619 27.4062 88.983 26.6193 88.125 26.0852C87.2727 25.5511 86.3182 25.2841 85.2614 25.2841C84.2045 25.2841 83.2472 25.5511 82.3892 26.0852C81.5369 26.6193 80.858 27.4062 80.3523 28.446C79.8523 29.4858 79.6023 30.7614 79.6023 32.2727C79.6023 33.7841 79.8523 35.0597 80.3523 36.0994C80.858 37.1392 81.5369 37.9261 82.3892 38.4602C83.2472 38.9943 84.2045 39.2614 85.2614 39.2614C86.3182 39.2614 87.2727 38.9943 88.125 38.4602C88.983 37.9261 89.6619 37.1392 90.1619 36.0994C90.6676 35.0597 90.9205 33.7841 90.9205 32.2727ZM96.5199 41V23.5455H98.6335V39.125H106.747V41H96.5199ZM111.837 41H109.621L116.031 23.5455H118.212L124.621 41H122.406L117.19 26.3068H117.053L111.837 41ZM112.656 34.1818H121.587V36.0568H112.656V34.1818Z" fill="#9C4221"/>
</svg>
