<svg width="150" height="65" viewBox="0 0 150 65" fill="none" xmlns="http://www.w3.org/2000/svg">
<rect width="150" height="65" fill="white"/>
<path d="M14.8295 41H12.6136L19.0227 23.5455H21.2045L27.6136 41H25.3977L20.1818 26.3068H20.0455L14.8295 41ZM15.6477 34.1818H24.5795V36.0568H15.6477V34.1818ZM32.1435 41L27.3707 23.5455H29.5185L33.1662 37.7614H33.3366L37.0526 23.5455H39.4389L43.1548 37.7614H43.3253L46.973 23.5455H49.1207L44.348 41H42.1662L38.3139 27.0909H38.1776L34.3253 41H32.1435ZM65.6612 32.2727C65.6612 34.1136 65.3288 35.7045 64.6641 37.0455C63.9993 38.3864 63.0874 39.4205 61.9283 40.1477C60.7692 40.875 59.4453 41.2386 57.9567 41.2386C56.468 41.2386 55.1442 40.875 53.9851 40.1477C52.826 39.4205 51.9141 38.3864 51.2493 37.0455C50.5845 35.7045 50.2521 34.1136 50.2521 32.2727C50.2521 30.4318 50.5845 28.8409 51.2493 27.5C51.9141 26.1591 52.826 25.125 53.9851 24.3977C55.1442 23.6705 56.468 23.3068 57.9567 23.3068C59.4453 23.3068 60.7692 23.6705 61.9283 24.3977C63.0874 25.125 63.9993 26.1591 64.6641 27.5C65.3288 28.8409 65.6612 30.4318 65.6612 32.2727ZM63.6158 32.2727C63.6158 30.7614 63.3629 29.4858 62.8572 28.446C62.3572 27.4062 61.6783 26.6193 60.8203 26.0852C59.968 25.5511 59.0135 25.2841 57.9567 25.2841C56.8999 25.2841 55.9425 25.5511 55.0845 26.0852C54.2322 26.6193 53.5533 27.4062 53.0476 28.446C52.5476 29.4858 52.2976 30.7614 52.2976 32.2727C52.2976 33.7841 52.5476 35.0597 53.0476 36.0994C53.5533 37.1392 54.2322 37.9261 55.0845 38.4602C55.9425 38.9943 56.8999 39.2614 57.9567 39.2614C59.0135 39.2614 59.968 38.9943 60.8203 38.4602C61.6783 37.9261 62.3572 37.1392 62.8572 36.0994C63.3629 35.0597 63.6158 33.7841 63.6158 32.2727ZM69.2152 41V23.5455H71.3288V39.125H79.4425V41H69.2152ZM96.7628 32.2727C96.7628 34.1136 96.4304 35.7045 95.7656 37.0455C95.1009 38.3864 94.1889 39.4205 93.0298 40.1477C91.8707 40.875 90.5469 41.2386 89.0582 41.2386C87.5696 41.2386 86.2457 40.875 85.0866 40.1477C83.9276 39.4205 83.0156 38.3864 82.3509 37.0455C81.6861 35.7045 81.3537 34.1136 81.3537 32.2727C81.3537 30.4318 81.6861 28.8409 82.3509 27.5C83.0156 26.1591 83.9276 25.125 85.0866 24.3977C86.2457 23.6705 87.5696 23.3068 89.0582 23.3068C90.5469 23.3068 91.8707 23.6705 93.0298 24.3977C94.1889 25.125 95.1009 26.1591 95.7656 27.5C96.4304 28.8409 96.7628 30.4318 96.7628 32.2727ZM94.7173 32.2727C94.7173 30.7614 94.4645 29.4858 93.9588 28.446C93.4588 27.4062 92.7798 26.6193 91.9219 26.0852C91.0696 25.5511 90.1151 25.2841 89.0582 25.2841C88.0014 25.2841 87.044 25.5511 86.1861 26.0852C85.3338 26.6193 84.6548 27.4062 84.1491 28.446C83.6491 29.4858 83.3991 30.7614 83.3991 32.2727C83.3991 33.7841 83.6491 35.0597 84.1491 36.0994C84.6548 37.1392 85.3338 37.9261 86.1861 38.4602C87.044 38.9943 88.0014 39.2614 89.0582 39.2614C90.1151 39.2614 91.0696 38.9943 91.9219 38.4602C92.7798 37.9261 93.4588 37.1392 93.9588 36.0994C94.4645 35.0597 94.7173 33.7841 94.7173 32.2727ZM103.487 41L98.7145 23.5455H100.862L104.51 37.7614H104.68L108.396 23.5455H110.783L114.499 37.7614H114.669L118.317 23.5455H120.464L115.692 41H113.51L109.658 27.0909H109.521L105.669 41H103.487ZM137.005 32.2727C137.005 34.1136 136.673 35.7045 136.008 37.0455C135.343 38.3864 134.431 39.4205 133.272 40.1477C132.113 40.875 130.789 41.2386 129.3 41.2386C127.812 41.2386 126.488 40.875 125.329 40.1477C124.17 39.4205 123.258 38.3864 122.593 37.0455C121.928 35.7045 121.596 34.1136 121.596 32.2727C121.596 30.4318 121.928 28.8409 122.593 27.5C123.258 26.1591 124.17 25.125 125.329 24.3977C126.488 23.6705 127.812 23.3068 129.3 23.3068C130.789 23.3068 132.113 23.6705 133.272 24.3977C134.431 25.125 135.343 26.1591 136.008 27.5C136.673 28.8409 137.005 30.4318 137.005 32.2727ZM134.96 32.2727C134.96 30.7614 134.707 29.4858 134.201 28.446C133.701 27.4062 133.022 26.6193 132.164 26.0852C131.312 25.5511 130.357 25.2841 129.3 25.2841C128.244 25.2841 127.286 25.5511 126.428 26.0852C125.576 26.6193 124.897 27.4062 124.391 28.446C123.891 29.4858 123.641 30.7614 123.641 32.2727C123.641 33.7841 123.891 35.0597 124.391 36.0994C124.897 37.1392 125.576 37.9261 126.428 38.4602C127.286 38.9943 128.244 39.2614 129.3 39.2614C130.357 39.2614 131.312 38.9943 132.164 38.4602C133.022 37.9261 133.701 37.1392 134.201 36.0994C134.707 35.0597 134.96 33.7841 134.96 32.2727Z" fill="#276749"/>
</svg>
