<svg width="150" height="65" viewBox="0 0 150 65" fill="none" xmlns="http://www.w3.org/2000/svg">
<rect width="150" height="65" fill="white"/>
<path d="M36.1136 41V23.5455H46.5795V25.4205H38.2273V31.3182H45.7955V33.1932H38.2273V41H36.1136ZM48.7358 41H46.5199L52.929 23.5455H55.1108L61.5199 41H59.304L54.0881 26.3068H53.9517L48.7358 41ZM49.554 34.1818H58.4858V36.0568H49.554V34.1818ZM70.9205 23.5455H73.0341V36.0227C73.0341 37.1364 72.8295 38.0824 72.4205 38.8608C72.0114 39.6392 71.4347 40.2301 70.6903 40.6335C69.946 41.0369 69.0682 41.2386 68.0568 41.2386C67.1023 41.2386 66.2528 41.0653 65.5085 40.7188C64.7642 40.3665 64.179 39.8665 63.7528 39.2188C63.3267 38.571 63.1136 37.8011 63.1136 36.9091H65.1932C65.1932 37.4034 65.3153 37.8352 65.5597 38.2045C65.8097 38.5682 66.1506 38.8523 66.5824 39.0568C67.0142 39.2614 67.5057 39.3636 68.0568 39.3636C68.6648 39.3636 69.1818 39.2358 69.608 38.9801C70.0341 38.7244 70.358 38.3494 70.5795 37.8551C70.8068 37.3551 70.9205 36.7443 70.9205 36.0227V23.5455ZM88.7244 23.5455H90.8381V35.1023C90.8381 36.2955 90.5568 37.3608 89.9943 38.2983C89.4375 39.2301 88.6506 39.9659 87.6335 40.5057C86.6165 41.0398 85.4233 41.3068 84.054 41.3068C82.6847 41.3068 81.4915 41.0398 80.4744 40.5057C79.4574 39.9659 78.6676 39.2301 78.1051 38.2983C77.5483 37.3608 77.2699 36.2955 77.2699 35.1023V23.5455H79.3835V34.9318C79.3835 35.7841 79.571 36.5426 79.946 37.2074C80.321 37.8665 80.8551 38.3864 81.5483 38.767C82.2472 39.142 83.0824 39.3295 84.054 39.3295C85.0256 39.3295 85.8608 39.142 86.5597 38.767C87.2585 38.3864 87.7926 37.8665 88.1619 37.2074C88.5369 36.5426 88.7244 35.7841 88.7244 34.9318V23.5455ZM93.5589 23.5455H95.9794L100.82 31.6932H101.025L105.866 23.5455H108.286L101.979 33.8068V41H99.8658V33.8068L93.5589 23.5455ZM113.134 23.5455V41H111.02V23.5455H113.134Z" fill="#9B2C2C"/>
</svg>
