<svg width="150" height="65" viewBox="0 0 150 65" fill="none" xmlns="http://www.w3.org/2000/svg">
<rect width="150" height="65" fill="white"/>
<path d="M28.1136 23.5455H30.6364L36.5682 38.0341H36.7727L42.7045 23.5455H45.2273V41H43.25V27.7386H43.0795L37.625 41H35.7159L30.2614 27.7386H30.0909V41H28.1136V23.5455ZM64.1925 32.2727C64.1925 34.1136 63.8601 35.7045 63.1953 37.0455C62.5305 38.3864 61.6186 39.4205 60.4595 40.1477C59.3004 40.875 57.9766 41.2386 56.4879 41.2386C54.9993 41.2386 53.6754 40.875 52.5163 40.1477C51.3572 39.4205 50.4453 38.3864 49.7805 37.0455C49.1158 35.7045 48.7834 34.1136 48.7834 32.2727C48.7834 30.4318 49.1158 28.8409 49.7805 27.5C50.4453 26.1591 51.3572 25.125 52.5163 24.3977C53.6754 23.6705 54.9993 23.3068 56.4879 23.3068C57.9766 23.3068 59.3004 23.6705 60.4595 24.3977C61.6186 25.125 62.5305 26.1591 63.1953 27.5C63.8601 28.8409 64.1925 30.4318 64.1925 32.2727ZM62.147 32.2727C62.147 30.7614 61.8942 29.4858 61.3885 28.446C60.8885 27.4062 60.2095 26.6193 59.3516 26.0852C58.4993 25.5511 57.5447 25.2841 56.4879 25.2841C55.4311 25.2841 54.4737 25.5511 53.6158 26.0852C52.7635 26.6193 52.0845 27.4062 51.5788 28.446C51.0788 29.4858 50.8288 30.7614 50.8288 32.2727C50.8288 33.7841 51.0788 35.0597 51.5788 36.0994C52.0845 37.1392 52.7635 37.9261 53.6158 38.4602C54.4737 38.9943 55.4311 39.2614 56.4879 39.2614C57.5447 39.2614 58.4993 38.9943 59.3516 38.4602C60.2095 37.9261 60.8885 37.1392 61.3885 36.0994C61.8942 35.0597 62.147 33.7841 62.147 32.2727ZM67.7464 41V23.5455H73.6442C75.0078 23.5455 76.1271 23.7784 77.0021 24.2443C77.8771 24.7045 78.5249 25.3381 78.9453 26.1449C79.3658 26.9517 79.576 27.8693 79.576 28.8977C79.576 29.9261 79.3658 30.8381 78.9453 31.6335C78.5249 32.429 77.88 33.054 77.0107 33.5085C76.1413 33.9574 75.0305 34.1818 73.6783 34.1818H68.9055V32.2727H73.6101C74.5419 32.2727 75.2919 32.1364 75.8601 31.8636C76.4339 31.5909 76.8487 31.2045 77.1044 30.7045C77.3658 30.1989 77.4964 29.5966 77.4964 28.8977C77.4964 28.1989 77.3658 27.5881 77.1044 27.0653C76.843 26.5426 76.4254 26.1392 75.8516 25.8551C75.2777 25.5653 74.5192 25.4205 73.576 25.4205H69.8601V41H67.7464ZM75.9624 33.1591L80.2578 41H77.8033L73.576 33.1591H75.9624ZM83.098 41V23.5455H93.6321V25.4205H85.2116V31.3182H93.0866V33.1932H85.2116V39.125H93.7685V41H83.098ZM97.4418 23.5455H99.9645L105.896 38.0341H106.101L112.033 23.5455H114.555V41H112.578V27.7386H112.408L106.953 41H105.044L99.5895 27.7386H99.419V41H97.4418V23.5455ZM120.907 23.5455V41H118.793V23.5455H120.907Z" fill="#285E61"/>
</svg>
