<svg width="195" height="65" viewBox="0 0 195 65" fill="none" xmlns="http://www.w3.org/2000/svg">
<rect width="195" height="65" fill="white"/>
<path d="M17.1136 23.5455H19.6364L25.5682 38.0341H25.7727L31.7045 23.5455H34.2273V41H32.25V27.7386H32.0795L26.625 41H24.7159L19.2614 27.7386H19.0909V41H17.1136V23.5455ZM53.1925 32.2727C53.1925 34.1136 52.8601 35.7045 52.1953 37.0455C51.5305 38.3864 50.6186 39.4205 49.4595 40.1477C48.3004 40.875 46.9766 41.2386 45.4879 41.2386C43.9993 41.2386 42.6754 40.875 41.5163 40.1477C40.3572 39.4205 39.4453 38.3864 38.7805 37.0455C38.1158 35.7045 37.7834 34.1136 37.7834 32.2727C37.7834 30.4318 38.1158 28.8409 38.7805 27.5C39.4453 26.1591 40.3572 25.125 41.5163 24.3977C42.6754 23.6705 43.9993 23.3068 45.4879 23.3068C46.9766 23.3068 48.3004 23.6705 49.4595 24.3977C50.6186 25.125 51.5305 26.1591 52.1953 27.5C52.8601 28.8409 53.1925 30.4318 53.1925 32.2727ZM51.147 32.2727C51.147 30.7614 50.8942 29.4858 50.3885 28.446C49.8885 27.4062 49.2095 26.6193 48.3516 26.0852C47.4993 25.5511 46.5447 25.2841 45.4879 25.2841C44.4311 25.2841 43.4737 25.5511 42.6158 26.0852C41.7635 26.6193 41.0845 27.4062 40.5788 28.446C40.0788 29.4858 39.8288 30.7614 39.8288 32.2727C39.8288 33.7841 40.0788 35.0597 40.5788 36.0994C41.0845 37.1392 41.7635 37.9261 42.6158 38.4602C43.4737 38.9943 44.4311 39.2614 45.4879 39.2614C46.5447 39.2614 47.4993 38.9943 48.3516 38.4602C49.2095 37.9261 49.8885 37.1392 50.3885 36.0994C50.8942 35.0597 51.147 33.7841 51.147 32.2727ZM56.1669 41V39.4659L65.576 25.4205H56.0646V23.5455H68.0987V25.0795L58.6896 39.125H68.201V41H56.1669ZM72.4624 41H70.2464L76.6555 23.5455H78.8374L85.2464 41H83.0305L77.8146 26.3068H77.6783L72.4624 41ZM73.2805 34.1818H82.2124V36.0568H73.2805V34.1818ZM87.9652 23.5455H90.4879L96.4197 38.0341H96.6243L102.556 23.5455H105.079V41H103.102V27.7386H102.931L97.4766 41H95.5675L90.1129 27.7386H89.9425V41H87.9652V23.5455ZM109.317 41V23.5455H115.419C116.635 23.5455 117.638 23.7557 118.428 24.1761C119.217 24.5909 119.805 25.1506 120.192 25.8551C120.578 26.554 120.771 27.3295 120.771 28.1818C120.771 28.9318 120.638 29.5511 120.371 30.0398C120.109 30.5284 119.763 30.9148 119.331 31.1989C118.905 31.483 118.442 31.6932 117.942 31.8295V32C118.476 32.0341 119.013 32.2216 119.553 32.5625C120.092 32.9034 120.544 33.392 120.908 34.0284C121.271 34.6648 121.453 35.4432 121.453 36.3636C121.453 37.2386 121.254 38.0256 120.857 38.7244C120.459 39.4233 119.831 39.9773 118.973 40.3864C118.115 40.7955 116.999 41 115.624 41H109.317ZM111.43 39.125H115.624C117.004 39.125 117.984 38.858 118.564 38.3239C119.149 37.7841 119.442 37.1307 119.442 36.3636C119.442 35.7727 119.291 35.2273 118.99 34.7273C118.689 34.2216 118.26 33.8182 117.703 33.517C117.146 33.2102 116.487 33.0568 115.726 33.0568H111.43V39.125ZM111.43 31.2159H115.351C115.987 31.2159 116.561 31.0909 117.072 30.8409C117.589 30.5909 117.999 30.2386 118.3 29.7841C118.607 29.3295 118.76 28.7955 118.76 28.1818C118.76 27.4148 118.493 26.7642 117.959 26.2301C117.425 25.6903 116.578 25.4205 115.419 25.4205H111.43V31.2159ZM127.04 23.5455V41H124.926V23.5455H127.04ZM137.619 35.5455H139.937L141.88 38.1023L142.391 38.7841L145.289 42.6364H142.971L141.062 40.0795L140.585 39.4318L137.619 35.5455ZM146.005 32.2727C146.005 34.1136 145.673 35.7045 145.008 37.0455C144.343 38.3864 143.431 39.4205 142.272 40.1477C141.113 40.875 139.789 41.2386 138.3 41.2386C136.812 41.2386 135.488 40.875 134.329 40.1477C133.17 39.4205 132.258 38.3864 131.593 37.0455C130.928 35.7045 130.596 34.1136 130.596 32.2727C130.596 30.4318 130.928 28.8409 131.593 27.5C132.258 26.1591 133.17 25.125 134.329 24.3977C135.488 23.6705 136.812 23.3068 138.3 23.3068C139.789 23.3068 141.113 23.6705 142.272 24.3977C143.431 25.125 144.343 26.1591 145.008 27.5C145.673 28.8409 146.005 30.4318 146.005 32.2727ZM143.96 32.2727C143.96 30.7614 143.707 29.4858 143.201 28.446C142.701 27.4062 142.022 26.6193 141.164 26.0852C140.312 25.5511 139.357 25.2841 138.3 25.2841C137.244 25.2841 136.286 25.5511 135.428 26.0852C134.576 26.6193 133.897 27.4062 133.391 28.446C132.891 29.4858 132.641 30.7614 132.641 32.2727C132.641 33.7841 132.891 35.0597 133.391 36.0994C133.897 37.1392 134.576 37.9261 135.428 38.4602C136.286 38.9943 137.244 39.2614 138.3 39.2614C139.357 39.2614 140.312 38.9943 141.164 38.4602C142.022 37.9261 142.701 37.1392 143.201 36.0994C143.707 35.0597 143.96 33.7841 143.96 32.2727ZM161.013 23.5455H163.127V35.1023C163.127 36.2955 162.846 37.3608 162.283 38.2983C161.727 39.2301 160.94 39.9659 159.923 40.5057C158.906 41.0398 157.712 41.3068 156.343 41.3068C154.974 41.3068 153.781 41.0398 152.763 40.5057C151.746 39.9659 150.957 39.2301 150.394 38.2983C149.837 37.3608 149.559 36.2955 149.559 35.1023V23.5455H151.673V34.9318C151.673 35.7841 151.86 36.5426 152.235 37.2074C152.61 37.8665 153.144 38.3864 153.837 38.767C154.536 39.142 155.371 39.3295 156.343 39.3295C157.315 39.3295 158.15 39.142 158.849 38.767C159.548 38.3864 160.082 37.8665 160.451 37.2074C160.826 36.5426 161.013 35.7841 161.013 34.9318V23.5455ZM167.348 41V23.5455H177.882V25.4205H169.462V31.3182H177.337V33.1932H169.462V39.125H178.018V41H167.348Z" fill="#553C9A"/>
</svg>
