<svg width="40" height="45" viewBox="0 0 40 45" fill="none" xmlns="http://www.w3.org/2000/svg">
<path fill-rule="evenodd" clip-rule="evenodd" d="M20 3.6374e-08C19.363 -7.81511e-05 18.7334 0.125895 18.1538 0.369382C17.5743 0.612869 17.0585 0.96818 16.6412 1.41124C16.2239 1.85429 15.915 2.37474 15.7353 2.9373C15.5557 3.49986 15.5095 4.0914 15.6 4.67182C12.3792 5.54712 9.55237 7.35795 7.54176 9.83387C5.53115 12.3098 4.44463 15.3179 4.44444 18.4091V34.7727H2.22222C1.63285 34.7727 1.06762 34.9882 0.650874 35.3718C0.234126 35.7554 0 36.2757 0 36.8182C0 37.3607 0.234126 37.8809 0.650874 38.2645C1.06762 38.6481 1.63285 38.8636 2.22222 38.8636H37.7778C38.3671 38.8636 38.9324 38.6481 39.3491 38.2645C39.7659 37.8809 40 37.3607 40 36.8182C40 36.2757 39.7659 35.7554 39.3491 35.3718C38.9324 34.9882 38.3671 34.7727 37.7778 34.7727H35.5556V18.4091C35.5554 15.3179 34.4688 12.3098 32.4582 9.83387C30.4476 7.35795 27.6208 5.54712 24.4 4.67182C24.4905 4.0914 24.4443 3.49986 24.2647 2.9373C24.085 2.37474 23.7761 1.85429 23.3588 1.41124C22.9415 0.96818 22.4257 0.612869 21.8462 0.369382C21.2666 0.125895 20.637 -7.81511e-05 20 3.6374e-08ZM24.4444 42.9545C24.4444 43.497 24.2103 44.0173 23.7936 44.4009C23.3768 44.7845 22.8116 45 22.2222 45H17.7778C17.1884 45 16.6232 44.7845 16.2064 44.4009C15.7897 44.0173 15.5556 43.497 15.5556 42.9545C15.5556 42.4121 15.7897 41.8918 16.2064 41.5082C16.6232 41.1246 17.1884 40.9091 17.7778 40.9091H22.2222C22.8116 40.9091 23.3768 41.1246 23.7936 41.5082C24.2103 41.8918 24.4444 42.4121 24.4444 42.9545Z" fill="black"/>
</svg>
